<?xml version="1.0" encoding="UTF-8"?>
<svg width="24px" height="24px" viewBox="0 0 24 24" version="1.1" xmlns="http://www.w3.org/2000/svg" xmlns:xlink="http://www.w3.org/1999/xlink">
    <title>Atmosphere</title>
    <g stroke="none" stroke-width="1" fill="none" fill-rule="evenodd">
        <path d="M15,9 L5,9 L5,8 L15,8 L15,9 Z M18,12 L5,12 L5,11 L18,11 L18,12 Z M14,15 L5,15 L5,14 L14,14 L14,15 Z M15,20 L7,20 C5.9,20 5.01,19.1 5.01,18 L5,5 C5,3.9 5.9,3 7,3 L17,3 C18.1,3 19,3.9 19,5 L19,15 C19,17.76 17.76,20 15,20 Z M17,5 L7,5 L7,18 L15,18 C16.66,18 17,16.66 17,15 L17,5 Z" fill="#000000"></path>
    </g>
</svg>