<?xml version="1.0" encoding="UTF-8"?>
<svg width="24px" height="24px" viewBox="0 0 24 24" version="1.1" xmlns="http://www.w3.org/2000/svg" xmlns:xlink="http://www.w3.org/1999/xlink">
    <title>Chef</title>
    <g stroke="none" stroke-width="1" fill="none" fill-rule="evenodd">
        <path d="M6.75,4 C7.99264069,4 9,4.9 9,6 L9,8 L15,8 L15,6 C15,4.9 16.0073593,4 17.25,4 C18.4926407,4 19.5,4.9 19.5,6 C19.5,6.75 19.1166484,7.44 18.5196387,7.77 C19.4319482,8.48 20,9.55 20,10.75 C20,13.09 18.1773903,15 15.7505901,15 L8.24940991,15 C5.82260971,15 4,13.09 4,10.75 C4,9.55 4.56805182,8.48 5.48036127,7.77 C4.88335161,7.44 4.5,6.75 4.5,6 C4.5,4.9 5.50735931,4 6.75,4 Z M8.5,16 L15.5,16 L15.5,18.25 C15.5,19.2 16.3,20 17.25,20 L12,20 L12,19 C12,18.45 11.55,18 11,18 C10.45,18 10,18.45 10,19 L10,20 L6.75,20 C7.7,20 8.5,19.2 8.5,18.25 L8.5,16 Z" fill="#000000"></path>
    </g>
</svg>