<?xml version="1.0" encoding="UTF-8"?>
<svg width="24px" height="24px" viewBox="0 0 24 24" version="1.1" xmlns="http://www.w3.org/2000/svg" xmlns:xlink="http://www.w3.org/1999/xlink">
    <title>Ingredient</title>
    <g stroke="none" stroke-width="1" fill="none" fill-rule="evenodd">
        <path d="M9,10 L9,15 L7.5,15 C6.12,15 5,13.88 5,12.5 C5,11.12 6.12,10 7.5,10 L9,10 Z M13.5,8 L13.5,16.5 C13.5,17.33 12.83,18 12,18 C11.17,18 10.5,17.33 10.5,16.5 L10.5,8 C10.5,7.17 11.17,6.5 12,6.5 C12.83,6.5 13.5,7.17 13.5,8 Z M18,11.5 C19.38,11.5 20.5,12.62 20.5,14 C20.5,15.38 19.38,16.5 18,16.5 L16.5,16.5 L16.5,11.5 L18,11.5 Z M7.5,17 L16.5,17 L16.5,18.5 C16.5,19.33 15.83,20 15,20 L9,20 C8.17,20 7.5,19.33 7.5,18.5 L7.5,17 Z M7.5,4 L16.5,4 C17.33,4 18,4.67 18,5.5 L18,6.5 L16.5,6.5 L16.5,5.5 L7.5,5.5 L7.5,6.5 L6,6.5 L6,5.5 C6,4.67 6.67,4 7.5,4 Z" fill="#000000"></path>
    </g>
</svg>